<?xml version="1.0" encoding="UTF-8"?>
<!DOCTYPE svg PUBLIC "-//W3C//DTD SVG 1.0//EN" "http://www.w3.org/TR/2001/REC-SVG-20010904/DTD/svg10.dtd">
<!-- Creator: CorelDRAW 2019 (64-Bit) -->
<svg xmlns="http://www.w3.org/2000/svg" xml:space="preserve" width="31.3902mm" height="31.3479mm" version="1.0" style="shape-rendering:geometricPrecision; text-rendering:geometricPrecision; image-rendering:optimizeQuality; fill-rule:evenodd; clip-rule:evenodd"
viewBox="0 0 222.12 221.82"
 xmlns:xlink="http://www.w3.org/1999/xlink"
 xmlns:xodm="http://www.corel.com/coreldraw/odm/2003">
 <defs>
  <style type="text/css">
   <![CDATA[
    .fil0 {fill:white}
    .fil2 {fill:#BA1836;fill-rule:nonzero}
    .fil3 {fill:#E1D4B3;fill-rule:nonzero}
    .fil1 {fill:#FF4D5D;fill-rule:nonzero}
   ]]>
  </style>
 </defs>
 <g id="Layer_x0020_1">
  <metadata id="CorelCorpID_0Corel-Layer"/>
  <g id="_2720827116080">
   <circle class="fil0" cx="111.09" cy="111.37" r="110.46"/>
   <g>
    <path class="fil1" d="M109.37 0.01c-58.66,0.87 -107.02,48.08 -109.29,106.7 -0.49,12.54 1.14,24.63 4.52,35.97 0.65,2.18 3.15,3.2 5.16,2.11 56.83,-30.91 83.78,7.28 92.54,24.5 0.84,1.66 3.34,1.05 3.34,-0.81l0 -39.54c0,-10.38 4.11,-19.8 10.78,-26.73l19.47 0c0.48,0 0.95,-0.06 1.41,-0.14l0 0.14c2.26,0 4.44,-0.3 6.54,-0.81 -6.89,12.97 -5.24,29.16 4.77,40.52 9.91,11.24 14,25.32 12.87,38.9 -0.88,10.58 -4.95,20.86 -11.95,29.25 -1.7,2.04 0.5,5.03 2.96,4.04 40.81,-16.42 69.64,-56.35 69.64,-103.04 0,-61.9 -50.64,-111.97 -112.75,-111.05zm51.95 114.03l0 0 -13.61 0c-1.48,-3.79 -1.89,-8.07 -0.96,-12.43 0.08,-0.39 0.04,-0.75 -0.07,-1.08 0.95,-0.35 1.87,-0.74 2.77,-1.18 6.74,1.09 11.9,6.93 11.9,13.98 0,0.24 -0.02,0.48 -0.04,0.72z"/>
    <g>
     <path class="fil2" d="M161.4 126.61c-6.57,-2.06 -11.4,-6.74 -13.68,-12.57 -1.48,-3.79 -1.89,-8.07 -0.96,-12.43 0.08,-0.39 0.04,-0.75 -0.07,-1.08 0.95,-0.35 1.87,-0.74 2.77,-1.18 9.08,-4.49 15.33,-13.82 15.33,-24.64 0,-15.19 -12.31,-27.5 -27.5,-27.5l0 31.42c-7.46,-10.67 -19.8,-17.67 -33.81,-17.67 -22.78,0 -41.25,18.47 -41.25,41.25l54.18 0 19.47 0c0.48,0 0.95,-0.06 1.41,-0.14l0 0.14c2.26,0 4.44,-0.3 6.54,-0.81 -6.89,12.97 -5.24,29.16 4.77,40.52 9.91,11.24 14,25.32 12.87,38.9 5.64,1.79 12.62,-0.22 16.37,-6 12.03,-18.53 4.1,-41.77 -16.45,-48.21z"/>
    </g>
   </g>
   <g>
    <path class="fil3" d="M118.73 213.81c0.42,-10.37 -1.03,-53.11 -52.4,-63.99 -1.22,-0.26 -2.37,0.69 -2.36,1.94 0.11,10.64 3.63,53.5 52.39,63.89 1.18,0.25 2.31,-0.63 2.36,-1.84z"/>
    <path class="fil3" d="M118.56 213.64c-4.24,-7.26 -23.91,-35.78 -63.7,-20.76 -0.94,0.36 -1.31,1.51 -0.76,2.35 4.72,7.21 25.85,34.92 63.65,20.7 0.91,-0.34 1.3,-1.44 0.81,-2.28z"/>
   </g>
  </g>
 </g>
</svg>
